<?xml version="1.0" standalone="no"?>
<!DOCTYPE svg PUBLIC "-//W3C//DTD SVG 20010904//EN"
 "http://www.w3.org/TR/2001/REC-SVG-20010904/DTD/svg10.dtd">
<svg version="1.0" xmlns="http://www.w3.org/2000/svg"
 width="700.000000pt" height="700.000000pt" viewBox="0 0 700.000000 700.000000"
 preserveAspectRatio="xMidYMid meet">
<metadata>
Created by potrace 1.11, written by Peter Selinger 2001-2013
</metadata>
<g transform="translate(0.000000,700.000000) scale(0.100000,-0.100000)"
fill="#000000" stroke="none">
<path d="M2028 6615 c-2 -1 -28 -5 -59 -8 -158 -17 -317 -112 -426 -253 -69
-90 -144 -266 -169 -398 -2 -12 -6 -32 -9 -46 -3 -14 -8 -59 -11 -102 -6 -68
-4 -79 15 -106 32 -45 81 -57 138 -33 39 16 61 59 68 135 18 178 94 367 186
459 83 83 164 118 283 125 273 14 625 -153 1026 -488 99 -82 260 -230 260
-239 0 -3 -15 -22 -33 -42 -184 -203 -312 -360 -473 -576 -65 -87 -118 -159
-118 -160 -1 -1 -32 -4 -71 -8 -38 -4 -78 -9 -87 -10 -9 -2 -48 -7 -85 -10
-37 -4 -75 -8 -83 -10 -8 -2 -35 -7 -60 -10 -25 -3 -56 -8 -70 -10 -14 -2 -43
-7 -65 -10 -23 -3 -52 -8 -65 -10 -14 -3 -63 -12 -110 -20 -93 -16 -104 -19
-170 -34 -25 -5 -61 -13 -80 -17 -76 -15 -72 -20 -102 106 -30 125 -63 316
-74 420 -3 36 -12 79 -19 97 -37 89 -163 87 -201 -2 -12 -29 -12 -49 1 -147
16 -123 30 -208 45 -278 5 -25 12 -56 14 -70 2 -14 13 -62 25 -107 12 -45 21
-84 21 -87 0 -3 -46 -19 -102 -37 -349 -106 -626 -229 -853 -377 -55 -36 -102
-68 -105 -71 -3 -3 -27 -24 -54 -46 -170 -136 -291 -310 -337 -485 -25 -95
-19 -241 15 -345 93 -289 433 -583 891 -770 50 -20 104 -43 120 -50 44 -19
283 -103 310 -109 55 -12 125 -39 125 -49 0 -7 -5 -32 -11 -57 -6 -25 -12 -52
-14 -60 -2 -8 -8 -33 -13 -55 -6 -22 -14 -60 -17 -85 -4 -24 -8 -47 -10 -50
-6 -9 -43 -273 -52 -365 -9 -100 -9 -357 0 -450 56 -534 335 -834 759 -819
292 10 645 175 1033 484 97 77 126 102 290 253 22 20 42 37 45 37 6 0 39 -29
130 -114 257 -239 605 -477 815 -557 28 -11 59 -24 70 -29 149 -69 414 -96
563 -58 201 51 350 179 446 382 51 110 89 246 102 366 3 36 8 68 10 72 6 9 5
363 0 403 -5 32 -14 113 -22 180 -6 53 -13 105 -19 135 -5 23 -21 113 -31 170
-2 14 -15 68 -28 120 -13 52 -21 98 -17 102 3 3 40 16 81 28 168 49 416 140
537 197 70 32 89 120 38 173 -49 51 -77 49 -235 -14 -123 -51 -389 -142 -461
-159 -27 -7 -27 -6 -82 162 -60 180 -175 480 -251 651 -26 58 -45 114 -43 125
3 11 37 93 76 183 39 89 89 211 111 270 23 59 45 116 50 127 5 11 35 97 66
190 31 94 59 173 63 177 11 13 256 -67 460 -148 356 -144 669 -363 779 -546
146 -244 76 -488 -203 -713 -99 -79 -125 -110 -125 -146 0 -54 9 -73 46 -98
67 -46 142 -10 307 148 177 170 267 351 272 544 9 323 -208 605 -661 860 -187
106 -500 231 -757 304 -55 15 -58 18 -54 42 3 14 23 114 45 221 22 107 44 224
47 260 4 36 9 73 11 83 23 120 23 477 1 617 -22 135 -25 145 -58 242 -79 230
-212 382 -401 457 -91 37 -118 42 -245 46 -270 10 -598 -124 -963 -394 -100
-73 -283 -223 -330 -271 -9 -8 -43 -41 -76 -73 l-60 -57 -41 37 c-23 21 -65
61 -95 88 -29 28 -78 71 -108 95 -30 25 -59 50 -65 56 -5 6 -55 45 -110 85
-55 41 -102 77 -105 80 -17 22 -217 141 -335 199 -150 74 -245 109 -366 134
-68 14 -233 29 -241 21z m3032 -245 c117 -36 212 -128 271 -263 44 -99 67
-194 85 -357 6 -46 5 -303 0 -360 -20 -206 -39 -323 -78 -500 -12 -52 -22 -97
-23 -100 -15 -66 -17 -70 -38 -65 -137 31 -202 45 -257 55 -36 6 -76 13 -90
16 -32 6 -204 33 -250 39 -19 3 -51 7 -70 10 -51 7 -141 17 -170 20 -136 13
-169 18 -174 30 -21 55 -350 468 -535 673 l-84 92 59 56 c426 403 831 644
1139 676 62 7 152 -2 215 -22z m-1461 -990 c111 -123 178 -203 264 -315 4 -5
19 -23 32 -40 47 -56 84 -112 79 -118 -3 -3 -33 -3 -67 0 -81 7 -707 7 -819 0
-49 -3 -88 -4 -88 -2 0 17 274 354 414 509 l80 88 19 -23 c10 -13 49 -58 86
-99z m166 -695 c138 -3 264 -7 280 -9 17 -2 48 -4 70 -5 l40 -1 97 -147 c184
-281 359 -585 507 -880 l79 -159 -92 -180 c-123 -240 -163 -312 -300 -539 -50
-82 -132 -213 -183 -290 -80 -120 -96 -139 -120 -141 -15 -1 -93 -6 -173 -10
-307 -18 -1150 -5 -1164 18 -1 2 -47 73 -103 158 -182 281 -348 568 -483 840
l-72 145 85 170 c151 302 329 611 509 883 l88 132 47 1 c27 1 66 3 88 5 22 1
146 6 275 10 129 3 236 8 238 9 2 2 11 1 20 -1 9 -1 130 -6 267 -9z m-1232
-58 c-4 -6 -25 -38 -46 -70 -41 -62 -237 -386 -237 -392 0 -2 -22 -42 -49 -88
-27 -47 -77 -140 -112 -206 -34 -67 -63 -120 -65 -119 -3 4 -159 396 -170 428
-4 14 -9 27 -9 30 -1 3 -7 17 -13 31 -17 42 -84 260 -80 264 2 1 39 10 83 20
44 9 87 18 95 20 45 9 241 45 275 49 22 4 51 8 65 11 42 7 100 15 159 21 30 3
57 6 58 7 1 2 14 4 28 5 19 1 24 -2 18 -11z m2057 -2 c14 -2 48 -7 75 -11 28
-3 59 -8 70 -10 11 -3 51 -9 89 -14 78 -12 407 -78 413 -83 8 -9 -150 -453
-227 -637 -17 -41 -36 -86 -41 -100 -9 -22 -16 -13 -83 115 -108 209 -351 626
-368 633 -5 2 -8 8 -8 14 0 5 -13 29 -30 53 -16 24 -30 46 -30 49 0 6 75 1
140 -9z m-3031 -265 c60 -197 170 -487 282 -741 l60 -136 -39 -84 c-68 -145
-178 -426 -246 -629 -37 -107 -68 -200 -71 -207 -3 -9 -12 -10 -32 -3 -357
114 -414 136 -618 235 -223 108 -410 239 -515 360 -158 183 -193 344 -114 524
26 58 112 177 161 222 163 149 387 283 658 395 125 51 439 154 446 146 3 -4
15 -41 28 -82z m3488 -1358 c67 -171 173 -476 173 -497 0 -10 -89 -35 -125
-36 -2 0 -19 -4 -36 -9 -18 -5 -51 -12 -73 -15 -23 -4 -60 -11 -84 -16 -23 -5
-59 -12 -80 -15 -20 -3 -62 -9 -92 -14 -30 -5 -77 -12 -105 -15 -27 -3 -76 -9
-107 -14 -40 -5 -55 -4 -51 3 4 6 30 47 58 91 117 182 284 472 382 662 56 110
43 122 140 -125z m-2973 130 c22 -42 67 -126 101 -187 34 -60 73 -130 87 -155
35 -62 155 -260 212 -349 l48 -74 -64 7 c-65 7 -80 9 -158 20 -99 15 -173 28
-352 63 l-186 36 15 51 c55 192 234 666 251 666 4 0 25 -35 46 -78z m-250
-876 c118 -26 150 -32 206 -41 19 -3 46 -8 60 -10 63 -13 78 -15 115 -20 22
-3 51 -7 65 -10 14 -2 43 -7 65 -10 22 -2 72 -9 110 -14 67 -10 194 -23 224
-24 7 0 52 -52 99 -116 97 -131 213 -280 275 -355 74 -87 171 -200 192 -222
11 -12 38 -40 59 -64 l39 -43 -69 -66 c-338 -324 -700 -555 -983 -626 -279
-70 -480 5 -594 222 -36 71 -71 171 -81 239 -4 21 -9 53 -11 69 -12 72 -15
118 -15 250 -1 172 3 224 35 453 10 66 45 245 65 326 11 43 20 80 20 82 0 6 8
5 124 -20z m3480 -53 c29 -129 44 -206 51 -248 3 -22 8 -47 10 -55 5 -17 13
-72 20 -145 3 -27 9 -84 14 -125 9 -79 7 -398 -3 -439 -3 -12 -8 -42 -10 -65
-14 -113 -71 -261 -132 -343 -50 -66 -72 -86 -137 -123 -205 -115 -529 -42
-907 205 -139 91 -364 272 -499 401 l-63 61 23 24 c121 124 341 389 494 595
65 88 121 162 125 167 9 11 18 12 220 32 25 3 56 7 70 9 14 3 45 8 70 11 25 3
61 8 80 11 19 3 49 7 65 9 35 4 90 13 125 20 46 10 74 15 110 20 19 3 82 17
140 30 58 13 108 24 111 24 3 1 13 -34 23 -76z m-1804 -113 c146 0 318 3 384
6 l119 6 -29 -38 c-117 -157 -313 -396 -423 -514 l-60 -65 -33 35 c-18 20 -62
69 -98 110 -36 41 -67 77 -70 80 -15 14 -156 188 -229 283 l-82 108 128 -6
c70 -2 247 -5 393 -5z"/>
<path d="M3410 4053 c-59 -10 -153 -47 -208 -82 -243 -158 -326 -458 -200
-720 42 -87 160 -205 243 -245 119 -56 229 -73 349 -54 210 32 407 220 450
429 13 62 14 188 2 238 -49 209 -214 377 -421 428 -28 7 -184 11 -215 6z m218
-245 c34 -13 72 -38 102 -67 165 -165 125 -429 -83 -538 -46 -25 -63 -28 -147
-28 -84 0 -101 3 -145 27 -205 109 -251 364 -95 527 99 103 229 131 368 79z"/>
</g>
</svg>
